HIERARCHY
ROOT Hips
{
	OFFSET 0.000000 88.474243 0.000000
	CHANNELS 6 Xposition Yposition Zposition Zrotation Yrotation Xrotation 
	JOINT Hips_Spine
	{
		OFFSET 0.000000 0.000000 0.000000
		CHANNELS 3 Zrotation Yrotation Xrotation
		JOINT Spine
		{
			OFFSET 0.005100 8.711998 -0.691000
			CHANNELS 3 Zrotation Yrotation Xrotation
			JOINT Spine1
			{
				OFFSET -0.009200 8.660301 -1.275000
				CHANNELS 3 Zrotation Yrotation Xrotation
				JOINT Spine2
				{
					OFFSET 0.006300 9.852501 -1.857000
					CHANNELS 3 Zrotation Yrotation Xrotation
					JOINT Spine2_Neck
					{
						OFFSET 0.000000 0.000000 0.000000
						CHANNELS 3 Zrotation Yrotation Xrotation
						JOINT Neck
						{
							OFFSET 0.016300 11.420799 -0.263300
							CHANNELS 3 Zrotation Yrotation Xrotation
							End Site #name: Head
							{
								OFFSET -0.019200 9.262405 2.362500
							}
						}
					}
					JOINT Spine2_LeftShoulder
					{
						OFFSET 0.000000 0.000000 0.000000
						CHANNELS 3 Zrotation Yrotation Xrotation
						JOINT LeftShoulder
						{
							OFFSET 5.616900 6.732201 -0.345700
							CHANNELS 3 Zrotation Yrotation Xrotation
							JOINT LeftArm
							{
								OFFSET 10.664888 -0.183372 -2.440700
								CHANNELS 3 Zrotation Yrotation Xrotation
								JOINT LeftForeArm
								{
									OFFSET 27.459126 0.000000 0.000000
									CHANNELS 3 Zrotation Yrotation Xrotation
									End Site #name: LeftHand
									{
										OFFSET 21.306858 0.000000 0.000000
									}
								}
							}
						}
					}
					JOINT Spine2_RightShoulder
					{
						OFFSET 0.000000 0.000000 0.000000
						CHANNELS 3 Zrotation Yrotation Xrotation
						JOINT RightShoulder
						{
							OFFSET -5.580300 6.737503 -0.344400
							CHANNELS 3 Zrotation Yrotation Xrotation
							JOINT RightArm
							{
								OFFSET -10.679335 -0.188484 -2.383900
								CHANNELS 3 Zrotation Yrotation Xrotation
								JOINT RightForeArm
								{
									OFFSET -27.503529 0.000000 0.000000
									CHANNELS 3 Zrotation Yrotation Xrotation
									End Site #name: RightHand
									{
										OFFSET -21.306808 0.000000 0.000000
									}
								}
							}
						}
					}
				}
			}
		}
	}
	JOINT Hips_LeftUpLeg
	{
		OFFSET 0.000000 0.000000 0.000000
		CHANNELS 3 Zrotation Yrotation Xrotation
		JOINT LeftUpLeg
		{
			OFFSET 6.857700 -6.739601 0.312100
			CHANNELS 3 Zrotation Yrotation Xrotation
			JOINT LeftLeg
			{
				OFFSET -0.367590 -34.731552 -4.572400
				CHANNELS 3 Zrotation Yrotation Xrotation
				End Site #name: LeftFoot
				{
					OFFSET 0.367590 -34.656704 -6.067400
				}
			}
		}
	}
	JOINT Hips_RightUpLeg
	{
		OFFSET 0.000000 0.000000 0.000000
		CHANNELS 3 Zrotation Yrotation Xrotation
		JOINT RightUpLeg
		{
			OFFSET -6.876100 -6.733299 0.301000
			CHANNELS 3 Zrotation Yrotation Xrotation
			JOINT RightLeg
			{
				OFFSET 0.347353 -34.795158 -4.515900
				CHANNELS 3 Zrotation Yrotation Xrotation
				End Site #name: RightFoot
				{
					OFFSET -0.347353 -34.589367 -6.070300
				}
			}
		}
	}
}
MOTION
Frames: 14
Frame Time: 0.041667
0.235260 0.791917 -1.057243 0.447630 -3.091394 -6.508699 -0.000000 0.000000 -0.000000 -0.816170 -1.222760 -5.452593 1.852460 -1.915023 -5.676745 0.000000 0.000000 0.000000 2.277757 -1.514153 -5.645567 4.496451 -4.350042 -4.694358 0.935270 -1.758436 -6.350940 -19.625518 -0.742758 9.155187 -51.545044 7.408657 1.689768 -0.422342 -20.626725 8.418222 1.436033 -1.889689 -3.016664 4.340371 6.095826 1.451010 64.770513 0.798605 -9.236552 0.536764 47.616507 -0.787865 -0.000000 -0.000000 -0.000000 -9.708979 24.338855 -2.027504 -1.681263 1.302819 18.415275 0.000000 0.000000 0.000000 -5.323723 5.264531 -19.022659 4.674796 -3.789049 13.122220 
-0.058809 0.809615 -1.094371 0.062083 -3.006741 -6.527398 -0.000000 0.000000 -0.000000 0.238274 -1.183980 -6.173361 2.081842 -1.935403 -5.656421 0.000000 0.000000 0.000000 2.517205 -1.459848 -5.619292 4.422011 -4.413442 -4.307588 1.185002 -1.708025 -6.260227 -18.922940 -0.752814 9.233608 -52.567982 8.321826 0.913886 -0.503306 -21.487905 8.415852 1.663306 -1.845479 -3.038886 4.518964 6.258883 1.510734 64.581706 0.559288 -9.203945 0.547632 48.009567 -0.787173 -0.000000 -0.000000 -0.000000 -8.958313 24.644571 -1.412544 -1.851965 1.058559 18.183708 0.000000 0.000000 0.000000 -4.511917 5.608323 -19.341833 4.880873 -4.434621 13.034791 
-0.338646 0.822708 -1.122988 -0.293176 -2.983435 -6.542326 -0.000000 0.000000 -0.000000 1.216258 -1.091669 -6.718360 2.303862 -1.947482 -5.609814 0.000000 0.000000 0.000000 2.737680 -1.402896 -5.577254 4.362149 -4.457730 -3.890575 1.429009 -1.659018 -6.161298 -18.279021 -0.810813 9.280977 -53.530219 9.190427 0.068356 -0.568679 -22.204844 8.384291 1.881956 -1.793578 -3.052028 4.768357 6.432174 1.567580 64.359346 0.359750 -9.123957 0.560739 48.376103 -0.780177 -0.000000 -0.000000 -0.000000 -8.236040 24.941477 -0.664893 -1.987849 0.767650 17.672739 0.000000 0.000000 0.000000 -3.709887 5.968638 -19.633710 5.136733 -4.913538 12.999139 
-0.596401 0.830816 -1.145541 -0.633986 -3.703692 -6.495566 -0.000000 0.000000 -0.000000 2.000234 -1.011057 -7.023378 2.501268 -1.953426 -5.542247 0.000000 0.000000 0.000000 2.923590 -1.341730 -5.530249 4.303266 -4.452522 -3.420365 1.645628 -1.608705 -6.053917 -17.696993 -0.884101 9.272411 -54.450160 10.025547 -0.789604 -0.627031 -22.877804 8.320992 2.072472 -1.742748 -3.053782 5.053989 6.613238 1.619562 64.141972 0.201102 -9.013243 0.576598 48.764003 -0.770627 -0.000000 -0.000000 -0.000000 -7.455055 25.264477 0.165559 -2.166637 0.479599 17.029840 0.000000 -0.000000 0.000000 -2.883872 6.412951 -20.016397 5.382482 -5.248198 13.086869 
-0.822386 0.837995 -1.161629 -0.906696 -5.234699 -6.413044 -0.000000 -0.000000 -0.000000 2.734164 -0.931493 -7.194221 2.665182 -1.949333 -5.467034 0.000000 0.000000 0.000000 3.071763 -1.286362 -5.475725 4.235888 -4.425850 -2.872521 1.823930 -1.559173 -5.939395 -17.168482 -0.953589 9.242700 -55.409360 10.816672 -1.615801 -0.698212 -23.510120 8.253476 2.231085 -1.696947 -3.044616 5.346042 6.796027 1.666768 63.923235 0.087496 -8.869062 0.592038 49.215788 -0.760854 -0.000000 -0.000000 -0.000000 -6.541307 25.463136 1.072439 -2.408459 0.366266 16.329756 0.000000 -0.000000 0.000000 -2.058276 6.890868 -20.404474 5.606200 -5.456416 13.285275 
-1.003465 0.842923 -1.175667 -1.104630 -7.445229 -6.304222 -0.000000 -0.000000 -0.000000 3.358645 -0.878246 -7.256042 2.797135 -1.946066 -5.382650 0.000000 0.000000 0.000000 3.193100 -1.238024 -5.404967 4.134777 -4.411428 -2.215887 1.969744 -1.520364 -5.825080 -16.651129 -1.058672 9.197675 -56.368532 11.516175 -2.311630 -0.770441 -24.129264 8.179131 2.365325 -1.659905 -3.029367 5.663089 6.988078 1.710282 63.682011 -0.107691 -8.819921 0.613083 49.880182 -0.750088 -0.000000 -0.000000 -0.000000 -5.568246 25.679100 1.965145 -2.776527 0.284955 15.904682 0.000000 -0.000000 0.000000 -1.318192 7.386327 -20.877267 5.813643 -5.527335 13.712528 
-1.127421 0.846608 -1.189331 -1.209242 -10.252413 -6.183915 -0.000000 -0.000000 -0.000000 3.737524 -0.940578 -7.134730 2.908685 -1.955276 -5.282840 0.000000 0.000000 0.000000 3.296413 -1.196889 -5.319909 3.975038 -4.380774 -1.446800 2.096279 -1.491525 -5.707195 -16.136057 -1.195686 9.153975 -57.239468 12.123629 -2.914714 -0.856003 -24.619863 8.145578 2.478450 -1.630468 -3.003056 5.954948 7.186063 1.750713 63.543924 -0.230416 -8.763447 0.643947 50.722634 -0.731404 -0.000000 -0.000000 -0.000000 -4.726899 25.796771 2.793251 -3.149529 0.117876 15.688198 0.000000 -0.000000 0.000000 -0.704614 7.866801 -21.455705 6.018420 -5.499117 14.379028 
-1.185115 0.851243 -1.203676 -1.185981 -13.645042 -6.057395 -0.000000 -0.000000 -0.000000 4.041404 -1.036890 -7.014432 3.005219 -1.972447 -5.170773 0.000000 0.000000 0.000000 3.388931 -1.167342 -5.214642 3.789425 -4.323693 -0.638155 2.207645 -1.473044 -5.584790 -15.693964 -1.326598 9.105712 -58.010089 12.617659 -3.440061 -0.943701 -25.023649 8.136039 2.578051 -1.614461 -2.967525 6.169120 7.365069 1.773120 63.461531 -0.407697 -8.741759 0.675053 51.530681 -0.712350 -0.000000 -0.000000 -0.000000 -4.122723 25.563310 3.463769 -3.422678 -0.106619 15.687479 0.000000 -0.000000 0.000000 -0.234347 8.343063 -22.171726 6.142372 -5.471317 15.330456 
-1.171500 0.855819 -1.221241 -1.037859 -17.539089 -5.956104 -0.000000 -0.000000 -0.000000 4.338656 -1.191528 -6.921528 3.086573 -1.988811 -5.040293 0.000000 0.000000 0.000000 3.442984 -1.146581 -5.096013 3.605193 -4.233479 0.093200 2.311480 -1.464437 -5.464615 -15.347321 -1.463517 9.032536 -58.673700 12.992572 -3.863434 -1.047641 -25.356675 8.123863 2.663740 -1.610781 -2.924160 6.265709 7.502057 1.784103 63.414963 -0.612851 -8.717267 0.707912 52.209886 -0.696723 -0.000000 -0.000000 -0.000000 -3.719736 24.999148 3.928710 -3.602462 -0.264145 15.918628 0.000000 -0.000000 0.000000 0.115422 8.828340 -22.962570 6.226774 -5.411528 16.481980 
-1.089184 0.855496 -1.244796 -0.805135 -22.008011 -5.889895 -0.000000 -0.000000 -0.000000 4.713272 -1.401354 -6.821396 3.161112 -2.007588 -4.903181 0.000000 0.000000 0.000000 3.479360 -1.131856 -4.966163 3.524011 -3.961987 0.467692 2.406755 -1.461483 -5.343474 -15.102866 -1.573430 8.940206 -59.074730 13.054025 -4.185312 -1.163752 -25.629596 8.076483 2.737825 -1.620743 -2.875663 6.286708 7.608558 1.791006 63.393713 -0.805885 -8.659481 0.740933 52.698278 -0.679218 -0.000000 -0.000000 -0.000000 -3.405096 24.338439 4.363263 -3.909101 -0.398654 16.223341 0.000000 -0.000000 0.000000 0.352484 9.340855 -23.755901 6.323394 -5.285141 17.761758 
-0.942590 0.856081 -1.272006 -0.501063 -26.873773 -5.868394 -0.000000 -0.000000 0.000000 5.076965 -1.611529 -6.747409 3.231900 -2.028677 -4.778996 0.000000 0.000000 0.000000 3.512207 -1.119459 -4.824816 3.511974 -3.654666 0.743874 2.493339 -1.462725 -5.229723 -14.981058 -1.649987 8.831286 -59.312920 12.983620 -4.371045 -1.283165 -25.871360 7.986211 2.800684 -1.636219 -2.826861 6.247023 7.689006 1.791872 63.397342 -1.017040 -8.574127 0.772066 52.943316 -0.655362 -0.000000 -0.000000 -0.000000 -3.133527 23.727393 4.799947 -4.489984 -0.699985 16.636041 0.000000 -0.000000 0.000000 0.481491 9.896816 -24.543274 6.405884 -5.127834 19.194150 
-0.733630 0.857873 -1.303631 -0.151548 -31.024763 -5.951025 -0.000000 -0.000000 0.000000 5.415527 -1.837498 -6.720079 3.301917 -2.052913 -4.663896 0.000000 0.000000 0.000000 3.543354 -1.109995 -4.696409 3.509748 -3.298427 1.006535 2.577519 -1.465111 -5.125044 -14.977569 -1.669326 8.718619 -59.416670 12.823692 -4.351546 -1.387243 -26.121886 7.825089 2.863820 -1.653977 -2.782637 6.177955 7.742954 1.787027 63.410832 -1.249287 -8.523277 0.799320 53.009521 -0.629423 -0.000000 -0.000000 -0.000000 -3.094190 23.075993 5.110019 -4.932339 -1.247478 17.439669 0.000000 -0.000000 0.000000 0.513665 10.518663 -25.269880 6.490627 -4.917344 20.733851 
-0.466046 0.855199 -1.342688 0.223875 -34.412076 -6.117484 -0.000000 -0.000000 0.000000 5.722672 -2.077580 -6.725125 3.381679 -2.076226 -4.562900 0.000000 0.000000 0.000000 3.579790 -1.104688 -4.573344 3.502745 -2.935634 1.261969 2.669449 -1.466854 -5.026432 -15.089751 -1.644819 8.611701 -59.407656 12.669299 -4.210543 -1.490896 -26.380525 7.600222 2.933713 -1.676826 -2.742055 6.113817 7.782691 1.780829 63.426127 -1.534355 -8.552528 0.823160 52.983863 -0.607325 -0.000000 -0.000000 -0.000000 -3.314947 22.453166 5.221645 -5.158022 -1.799797 18.513858 0.000000 -0.000000 0.000000 0.403731 11.093928 -25.970866 6.578868 -4.633606 22.350608 
-0.155835 0.848659 -1.387868 0.602121 -37.117332 -6.336086 -0.000000 -0.000000 0.000000 5.994136 -2.336889 -6.752598 3.476536 -2.098756 -4.467291 0.000000 0.000000 0.000000 3.624630 -1.098093 -4.451862 3.483482 -2.584527 1.514180 2.774473 -1.468548 -4.932836 -15.284146 -1.580466 8.512687 -59.289649 12.525450 -4.057145 -1.575932 -26.731259 7.313043 3.014764 -1.700048 -2.704786 6.063479 7.830119 1.782063 63.435183 -1.867911 -8.697396 0.845048 52.952969 -0.583123 -0.000000 -0.000000 -0.000000 -3.808515 21.775854 5.082690 -5.306397 -2.223116 19.631071 0.000000 -0.000000 0.000000 0.164780 11.598093 -26.628998 6.674079 -4.298041 24.019325 
